<svg version="1.0" xmlns="http://www.w3.org/2000/svg"
 width="1024" height="1024" viewBox="0 0 1024 1024" fill="currentColor" stroke="none">
<g transform="translate(0.000000,1024.000000) scale(0.100000,-0.100000)">
<path d="M4110 7164 c-168 -19 -311 -37 -318 -39 -7 -3 -20 -18 -29 -34 -17
-28 -21 -29 -113 -35 -94 -7 -474 -51 -538 -62 -18 -4 -47 -18 -63 -31 l-29
-24 -47 39 c-104 87 -201 116 -378 116 -105 0 -158 -6 -280 -31 -82 -17 -181
-36 -220 -43 -98 -15 -158 -37 -185 -65 -34 -36 -35 -100 -7 -368 l24 -228 34
-41 c32 -41 34 -48 51 -197 9 -85 16 -156 15 -158 -2 -1 -57 -7 -123 -13 -65
-6 -202 -22 -304 -36 -438 -58 -506 -78 -527 -149 -17 -58 -54 -642 -42 -673
5 -13 38 -57 72 -96 34 -39 79 -92 99 -117 54 -68 78 -75 201 -58 56 7 106 14
112 14 10 0 14 -22 85 -498 56 -382 42 -346 208 -509 83 -82 115 -108 143
-113 25 -5 95 7 240 38 112 25 220 48 239 52 51 10 96 41 110 75 9 22 10 57 5
121 l-7 91 67 -70 c108 -115 199 -162 354 -184 158 -22 375 20 503 98 181 110
327 331 354 536 4 27 8 47 10 45 2 -2 10 -91 19 -198 l15 -194 55 -80 c88
-129 129 -179 155 -192 36 -18 313 -17 452 3 175 23 300 59 427 120 63 30 115
53 116 52 1 -2 8 -14 15 -26 6 -13 32 -33 56 -44 44 -19 48 -19 232 -2 103 9
202 22 219 30 18 7 41 27 52 44 l19 32 27 -50 c33 -60 84 -92 146 -92 35 1 64
12 139 55 l94 54 20 -34 c37 -65 39 -65 488 -65 497 0 469 -8 523 155 5 15 10
8 21 -33 32 -122 51 -131 317 -138 235 -7 244 -4 295 86 32 55 36 55 46 0 9
-54 42 -99 83 -117 26 -10 102 -19 241 -26 241 -13 217 -21 377 122 l110 98
164 424 c90 233 220 568 289 744 141 357 144 371 101 480 -17 41 -33 64 -54
76 -41 24 -647 169 -704 169 -57 0 -109 -26 -138 -70 -13 -18 -23 -31 -23 -29
0 2 20 69 45 149 25 80 53 186 62 235 21 112 21 270 -1 354 -61 240 -294 421
-611 476 -83 14 -134 16 -298 11 -109 -4 -211 -12 -225 -17 -15 -5 -36 -21
-48 -35 l-20 -25 -110 10 c-60 6 -198 18 -307 27 l-197 16 -37 -22 -36 -21
-21 20 c-106 100 -483 122 -675 39 -24 -10 -45 -17 -46 -16 -1 2 -8 18 -15 36
-20 52 -50 66 -123 59 -206 -21 -406 -47 -429 -56 -15 -5 -35 -18 -45 -28 -16
-16 -36 -18 -209 -15 l-192 3 -5 42 c-4 28 -14 49 -32 64 -24 21 -36 23 -128
22 -56 -1 -239 -16 -407 -35z m410 -190 c-3 -43 -5 -118 -5 -165 l0 -87 -60
-6 c-33 -3 -100 -8 -149 -12 l-88 -7 6 -66 c4 -36 8 -66 9 -68 2 -1 56 2 122
7 66 5 121 8 122 6 2 -2 9 -62 16 -133 l13 -131 -45 -6 c-24 -3 -82 -6 -129
-6 l-85 0 7 -57 c13 -132 28 -324 24 -328 -5 -6 -297 -10 -302 -4 -13 13 -69
716 -79 991 l-2 78 30 5 c82 13 581 73 590 71 6 -2 8 -34 5 -82z m1006 -31 c4
-38 8 -205 8 -373 1 -336 -6 -396 -63 -516 -93 -198 -386 -273 -619 -158 -60
29 -81 46 -116 94 -54 72 -91 183 -106 316 -12 101 -11 596 1 608 3 4 83 9
176 13 l171 6 -2 -309 c-1 -333 4 -375 49 -420 45 -45 123 -27 159 36 19 31
21 52 21 200 0 91 -2 248 -5 350 l-5 185 130 16 c72 9 144 17 162 18 l31 1 8
-67z m666 36 c44 -9 105 -27 116 -34 3 -3 -68 -288 -72 -293 -2 -1 -23 5 -47
15 -28 11 -70 18 -115 18 -89 0 -117 -19 -112 -74 3 -30 10 -39 43 -58 22 -13
65 -30 95 -39 78 -23 126 -50 180 -100 70 -66 95 -128 95 -239 0 -78 -4 -97
-28 -147 -71 -145 -233 -210 -448 -179 -96 14 -269 68 -275 86 -3 7 12 73 34
146 27 96 42 133 53 132 8 -1 51 -16 97 -32 107 -39 173 -41 207 -6 14 13 25
31 25 40 0 32 -56 72 -152 109 -160 62 -222 110 -266 205 -21 47 -24 63 -19
130 3 42 10 93 17 113 27 91 127 174 244 202 73 17 254 20 328 5z m-3441 -49
c111 -34 183 -103 230 -221 27 -68 36 -197 19 -268 -18 -75 -80 -166 -140
-203 l-50 -31 62 -66 c101 -107 228 -249 228 -255 0 -5 -294 -156 -304 -156
-2 0 -64 73 -137 162 -74 89 -140 169 -147 177 -14 17 -14 7 4 -126 l6 -51
-53 -6 c-30 -3 -104 -8 -165 -11 l-112 -6 -11 83 c-6 46 -22 171 -36 278 -35
275 -32 260 -57 257 -20 -2 -23 6 -39 123 -32 242 -33 227 4 239 27 9 353 80
427 94 71 13 211 6 271 -13z m5059 -19 c122 -41 192 -82 261 -150 153 -153
172 -390 52 -641 -78 -162 -207 -269 -386 -318 -86 -23 -295 -20 -445 6 -63
11 -115 22 -116 24 -2 2 76 873 96 1073 3 29 5 30 68 36 36 4 135 6 220 4 145
-2 161 -4 250 -34z m-4036 -142 c10 -77 16 -142 14 -144 -2 -2 -75 -9 -163
-15 -88 -7 -160 -13 -161 -14 0 0 1 -34 4 -75 l4 -73 57 5 c31 4 93 9 137 13
l82 6 9 -113 c5 -63 6 -117 3 -121 -3 -4 -65 -10 -138 -14 l-134 -7 7 -61 c4
-34 9 -63 11 -65 3 -3 80 0 171 7 92 6 168 10 169 9 4 -5 22 -272 19 -275 -7
-7 -615 -36 -621 -29 -3 3 -16 130 -29 284 -13 153 -33 386 -45 517 -11 131
-19 240 -18 241 2 2 104 15 228 29 124 14 239 27 255 29 17 2 51 5 76 6 l46 1
17 -141z m3115 126 c135 -9 247 -18 250 -21 5 -4 -16 -265 -21 -269 -2 -1 -75
1 -163 6 -88 4 -160 7 -161 6 -1 -1 -5 -34 -9 -73 l-7 -72 136 -7 c119 -7 136
-9 132 -24 -3 -9 -8 -61 -11 -116 l-7 -100 -137 3 -138 3 -6 -57 c-4 -35 -2
-61 4 -65 6 -3 83 -9 171 -12 89 -4 163 -9 165 -11 7 -6 -14 -246 -21 -253 -6
-6 -618 17 -625 23 -5 5 67 968 76 1022 l5 32 62 0 c33 0 171 -7 305 -15z
m-4415 -1116 c3 -17 13 -99 21 -182 8 -84 17 -173 20 -198 l5 -46 -205 -18
c-184 -16 -205 -20 -205 -36 0 -25 50 -413 104 -804 24 -176 43 -321 42 -322
-2 -2 -423 -93 -445 -96 -11 -1 -18 18 -27 73 -7 41 -49 302 -94 580 -45 278
-83 507 -85 509 -2 2 -96 -12 -209 -30 -175 -29 -206 -32 -206 -19 0 8 7 110
15 225 8 116 15 222 15 237 0 21 6 28 28 32 37 8 466 61 697 86 300 32 355 37
441 39 l82 1 6 -31z m6474 -114 c1 -1 -48 -130 -109 -286 -61 -156 -180 -462
-264 -679 -193 -497 -182 -472 -203 -466 -9 2 -106 8 -214 11 -190 7 -197 8
-202 29 -3 11 -24 127 -46 256 -40 223 -45 249 -53 239 -2 -2 -43 -110 -91
-239 l-86 -235 -153 3 c-83 2 -177 7 -207 10 l-55 7 -47 330 c-27 182 -70 470
-96 641 l-48 311 204 7 c112 4 206 5 208 3 2 -2 24 -161 50 -353 25 -192 47
-351 50 -353 10 -10 26 26 125 291 l104 278 115 -6 c63 -4 116 -7 117 -8 1 -1
24 -140 50 -309 26 -169 50 -307 54 -307 8 0 5 -9 70 240 119 460 161 618 175
661 l14 45 268 -60 c147 -32 268 -60 270 -61z m-4318 70 c166 -43 263 -139
305 -302 34 -131 8 -230 -86 -324 -57 -57 -58 -59 -31 -59 134 -1 276 -221
259 -402 -12 -137 -102 -249 -260 -323 -163 -76 -337 -107 -622 -109 l-180 -1
-7 105 c-21 297 -51 660 -64 775 -7 72 -14 138 -14 148 0 17 -6 18 -49 12
l-48 -6 -7 138 c-4 76 -9 161 -12 189 l-6 51 89 33 c103 37 273 77 382 90 105
12 274 5 351 -15z m1145 -90 c185 -48 291 -151 331 -321 43 -182 -24 -351
-181 -459 l-54 -38 29 -41 c17 -23 79 -104 140 -181 60 -77 110 -142 110 -145
0 -7 -322 -160 -336 -160 -5 0 -60 87 -121 193 -62 105 -123 208 -135 227
l-23 35 -5 -195 -5 -195 -100 -12 c-55 -6 -135 -12 -178 -12 l-79 -1 7 455 8
455 -36 0 c-43 0 -43 0 -52 192 l-6 127 78 24 c67 21 172 45 263 60 70 12 289
6 345 -8z m1222 -107 c-4 -24 -12 -105 -19 -180 l-12 -138 -198 0 -198 0 0
-75 0 -75 165 0 165 0 0 -135 0 -135 -175 0 -175 0 0 -80 0 -80 38 4 c20 3
124 8 231 11 l194 6 -7 -98 c-4 -54 -9 -131 -13 -170 l-6 -73 -117 0 c-64 0
-239 -3 -387 -7 l-271 -6 5 619 c3 340 9 623 14 628 10 11 275 22 578 24 l194
2 -6 -42z m-3822 -83 c150 -40 284 -152 354 -297 49 -104 65 -176 63 -303 -3
-304 -178 -558 -449 -652 -107 -37 -272 -39 -378 -6 -365 116 -532 533 -356
888 89 179 255 316 443 365 91 24 241 26 323 5z"/>
<path d="M2452 6613 c-16 -3 -21 -10 -18 -21 3 -9 10 -77 17 -150 l12 -133 31
6 c56 12 134 53 152 80 42 65 22 180 -37 210 -26 14 -105 18 -157 8z"/>
<path d="M7553 6369 c-12 -134 -20 -245 -18 -247 2 -2 21 -6 43 -9 51 -7 142
20 182 53 90 76 106 256 33 353 -29 38 -106 76 -173 86 l-46 7 -21 -243z"/>
<path d="M4316 5373 l-28 -5 6 -71 c4 -40 9 -98 13 -131 l6 -58 51 7 c61 8
124 34 149 63 26 29 32 90 13 135 -24 58 -92 77 -210 60z"/>
<path d="M4344 4798 c3 -24 8 -87 12 -142 l7 -99 66 6 c132 11 201 60 201 144
0 98 -51 133 -196 133 l-96 0 6 -42z"/>
<path d="M5510 5238 c0 -51 3 -124 7 -162 l6 -68 41 6 c23 4 59 12 80 18 114
34 161 177 85 262 -26 30 -30 31 -123 34 l-96 4 0 -94z"/>
<path d="M2919 5086 c-164 -58 -247 -225 -190 -376 27 -71 63 -114 116 -140
131 -64 290 8 361 164 23 51 26 68 22 130 -3 45 -13 86 -26 113 -50 97 -179
147 -283 109z"/>
</g>
</svg>
